<svg xmlns="http://www.w3.org/2000/svg" width="96" height="96" viewBox="0 0 96 96" role="img" aria-label="ah.">
  <rect x="2" y="2" width="92" height="92" rx="20" fill="#15201E"></rect>
  <g transform="translate(16.88 64.74)">
    <path fill="#FBFCFC" d="M24.33 0L21.07 0Q19.14 0 18.01-1.13Q16.88-2.25 16.61-4.14L16.61-4.14L16.33-4.14Q15.73-1.79 13.89-0.62Q12.05 0.55 9.34 0.55L9.34 0.55Q5.66 0.55 3.68-1.38Q1.70-3.31 1.70-6.53L1.70-6.53Q1.70-10.26 4.37-12.07Q7.04-13.89 11.96-13.89L11.96-13.89L16.05-13.89L16.05-15.64Q16.05-17.66 15.00-18.77Q13.94-19.87 11.59-19.87L11.59-19.87Q9.52-19.87 8.26-18.98Q6.99-18.08 6.12-16.84L6.12-16.84L2.62-19.96Q3.96-22.03 6.16-23.30Q8.37-24.56 12.01-24.56L12.01-24.56Q16.88-24.56 19.41-22.36Q21.94-20.15 21.94-16.01L21.94-16.01L21.94-4.69L24.33-4.69L24.33 0ZM11.32-3.73L11.32-3.73Q13.29-3.73 14.67-4.60Q16.05-5.47 16.05-7.18L16.05-7.18L16.05-10.35L12.28-10.35Q7.68-10.35 7.68-7.41L7.68-7.41L7.68-6.62Q7.68-5.15 8.63-4.44Q9.57-3.73 11.32-3.73Z M27.74 0L27.74-34.04L33.63-34.04L33.63-20.01L33.86-20.01Q34.59-21.94 36.18-23.25Q37.77-24.56 40.57-24.56L40.57-24.56Q44.30-24.56 46.28-22.13Q48.25-19.69 48.25-15.18L48.25-15.18L48.25 0L42.37 0L42.37-14.58Q42.37-17.16 41.45-18.45Q40.53-19.73 38.41-19.73L38.41-19.73Q37.49-19.73 36.64-19.48Q35.79-19.23 35.12-18.75Q34.45-18.26 34.04-17.55Q33.63-16.84 33.63-15.87L33.63-15.87L33.63 0L27.74 0Z"></path>
    <path fill="#33BCA9" d="M56.86 0.51L56.86 0.51Q54.97 0.51 54.07-0.44Q53.18-1.38 53.18-2.85L53.18-2.85L53.18-3.68Q53.18-5.15 54.07-6.12Q54.97-7.08 56.86-7.08L56.86-7.08Q58.79-7.08 59.66-6.12Q60.54-5.15 60.54-3.68L60.54-3.68L60.54-2.85Q60.54-1.38 59.66-0.44Q58.79 0.51 56.86 0.51Z"></path>
  </g>
</svg>